<svg width="35" height="33" viewBox="0 0 35 33" fill="none" xmlns="http://www.w3.org/2000/svg">
<path d="M15.6304 31.9568C16.14 32.4507 16.7705 32.6441 17.3831 32.4943C17.9956 32.3445 18.5401 31.8639 18.8968 31.1581C19.0203 30.9137 19.0686 30.6113 19.031 30.3176C18.9935 30.0238 18.8733 29.7627 18.6968 29.5917L16.8184 26.8512L21.1052 31.0063C21.269 31.1656 21.4538 31.2786 21.6492 31.3388C21.8445 31.399 22.0465 31.4051 22.2436 31.3569C22.4407 31.3087 22.6289 31.2071 22.7976 31.0579C22.9662 30.9087 23.1119 30.7148 23.2263 30.4874C23.341 30.2605 23.4223 30.0045 23.4655 29.734C23.5087 29.4636 23.5131 29.184 23.4783 28.9113C23.4435 28.6385 23.3703 28.3779 23.2627 28.1443C23.1552 27.9108 23.0155 27.7088 22.8517 27.55L19.2004 22.9028L24.658 28.194C24.8217 28.3534 25.0066 28.4664 25.2019 28.5266C25.3973 28.5867 25.5993 28.5929 25.7964 28.5447C25.9934 28.4965 26.1817 28.3948 26.3503 28.2456C26.519 28.0964 26.6647 27.9026 26.7791 27.6752C26.8938 27.4482 26.975 27.1922 27.0183 26.9218C27.0615 26.6514 27.0658 26.3718 27.0311 26.099C26.9963 25.8263 26.923 25.5656 26.8155 25.3321C26.708 25.0985 26.5683 24.8966 26.4044 24.7378L21.5652 19.0106L27.5193 24.7828C27.683 24.9421 27.8679 25.0551 28.0632 25.1153C28.2586 25.1755 28.4606 25.1816 28.6577 25.1334C28.8547 25.0852 29.043 24.9836 29.2116 24.8344C29.3803 24.6852 29.526 24.4913 29.6404 24.2639C29.7551 24.037 29.8363 23.781 29.8796 23.5105C29.9228 23.2401 29.9271 22.9605 29.8924 22.6878C29.8576 22.415 29.7843 22.1544 29.6768 21.9208C29.5693 21.6873 29.4296 21.4853 29.2657 21.3265L3.75572 5.04785L0.235451 12.8111C-0.159526 13.6547 -0.0518971 14.7979 0.515691 15.47L8.42131 24.8503C8.78211 25.2777 9.15678 25.6803 9.54532 26.0581L15.6304 31.9568Z" fill="#721B27"/>
<path d="M29.21 19.8929L17.7343 8.43155L17.6744 8.31906L17.7282 8.20657L17.782 8.13205L18.6492 8.79152C19.6219 9.66332 21.8445 10.9513 23.529 10.9513C24.6814 10.9513 25.3719 10.3537 25.578 9.18383C25.6404 8.66674 25.5524 8.13649 25.3331 7.70907C25.1139 7.28165 24.7814 6.99186 24.4083 6.9031C23.3895 6.69195 22.4178 6.16779 21.5643 5.36902L21.0007 4.84454C20.3672 4.25256 19.6493 3.58184 19.1193 3.14875C18.4593 2.59474 17.7414 2.32617 16.923 2.32617C15.7087 2.32617 14.475 2.91956 13.283 3.49325L11.9975 4.10632C11.4427 4.36465 10.8608 4.49343 10.2755 4.48738C8.70774 4.48738 7.17352 3.66339 5.69007 2.86753L5.54082 2.78597C5.23549 2.62434 4.89911 2.61448 4.58912 2.75809C4.27912 2.9017 4.01474 3.18987 3.8411 3.5734L0.320831 11.3394C0.142237 11.7267 0.0703187 12.1901 0.118238 12.6448C0.166157 13.0995 0.330708 13.5151 0.581779 13.8156L8.48639 23.1972C8.8438 23.6205 9.21948 24.024 9.60329 24.3953L15.863 30.4641C16.0815 30.676 16.3279 30.8263 16.5883 30.9063C16.8488 30.9863 17.118 30.9945 17.3807 30.9304C17.6434 30.8663 17.8944 30.7311 18.1193 30.5327C18.3443 30.3342 18.5388 30.0763 18.6918 29.7737C18.8149 29.5289 18.863 29.2267 18.8258 28.9329C18.7885 28.6392 18.6688 28.3778 18.4928 28.2058L16.6316 26.4018C16.583 26.3544 16.542 26.2936 16.5111 26.2232C16.4803 26.1527 16.4604 26.0742 16.4525 25.9926C16.4447 25.9109 16.4492 25.8279 16.4657 25.7488C16.4822 25.6697 16.5103 25.5961 16.5484 25.5328C16.617 25.4178 16.7145 25.343 16.8213 25.3234C16.9281 25.3038 17.0363 25.341 17.1241 25.4274L21.1642 29.3434C21.4731 29.6429 21.8552 29.7601 22.2265 29.6694C22.5979 29.5787 22.9279 29.2874 23.1442 28.8597C23.3604 28.4319 23.4451 27.9028 23.3796 27.3885C23.3141 26.8743 23.1038 26.4172 22.7949 26.1178L19.0137 22.4534C18.965 22.406 18.924 22.3452 18.8932 22.2748C18.8624 22.2043 18.8424 22.1258 18.8346 22.0442C18.8268 21.9625 18.8312 21.8795 18.8477 21.8004C18.8642 21.7213 18.8924 21.6477 18.9304 21.5844C18.9994 21.4702 19.0969 21.3961 19.2035 21.3765C19.31 21.357 19.4181 21.3936 19.5061 21.479L24.717 26.5312C24.8699 26.6794 25.0425 26.7845 25.2247 26.8405C25.407 26.8964 25.5954 26.9021 25.7793 26.8572C25.9632 26.8123 26.1388 26.7176 26.2963 26.5787C26.4537 26.4398 26.5899 26.2592 26.6969 26.0474C26.804 25.8357 26.8799 25.5967 26.9203 25.3443C26.9607 25.0919 26.9648 24.8309 26.9324 24.5763C26.8999 24.3217 26.8316 24.0784 26.7313 23.8604C26.6309 23.6423 26.5006 23.4538 26.3477 23.3055L21.4049 18.5149C21.3558 18.4679 21.3144 18.4073 21.2833 18.3368C21.2522 18.2663 21.2321 18.1876 21.2244 18.1057C21.2166 18.0238 21.2214 17.9405 21.2383 17.8613C21.2552 17.7821 21.2839 17.7087 21.3226 17.6459C21.3843 17.544 21.4713 17.478 21.5664 17.4608C21.6616 17.4436 21.7579 17.4765 21.8364 17.5531L27.5793 23.1199C27.7323 23.2682 27.9049 23.3733 28.0872 23.4292C28.2696 23.4851 28.4581 23.4907 28.642 23.4457C28.8259 23.4007 29.0016 23.306 29.1591 23.167C29.3165 23.028 29.4527 22.8474 29.5598 22.6355C29.6668 22.4236 29.7427 22.1846 29.7831 21.9321C29.8235 21.6796 29.8275 21.4185 29.795 21.1639C29.7625 20.9092 29.6942 20.6658 29.5938 20.4478C29.4934 20.2297 29.363 20.0411 29.21 19.8929Z" fill="#721B27"/>
<path d="M15.7397 27.1723C15.6687 27.5477 15.5296 27.8725 15.3448 28.1298L14.3253 29.5303C14.1383 29.7912 13.9052 29.9798 13.6493 30.0775C13.3934 30.1752 13.1234 30.1785 12.8663 30.0872C12.6067 29.9936 12.3696 29.8067 12.1789 29.5455C11.9882 29.2842 11.8507 28.9579 11.7803 28.5994C11.7099 28.241 11.7092 27.8631 11.7781 27.5041C11.847 27.1451 11.9832 26.8177 12.1728 26.555L13.1922 25.1545C13.3793 24.8936 13.6123 24.705 13.8683 24.6073C14.1242 24.5097 14.3941 24.5063 14.6513 24.5977C14.8448 24.6677 15.0265 24.7898 15.186 24.9571C15.3455 25.1244 15.4796 25.3336 15.5807 25.5727C15.6817 25.8118 15.7478 26.0761 15.7751 26.3506C15.8024 26.625 15.7904 26.9042 15.7397 27.1723ZM5.03375 20.2527L6.55985 18.1478C6.73434 17.9064 6.8639 17.61 6.9374 17.284C7.0109 16.958 7.02613 16.6121 6.98178 16.2762C6.93744 15.9402 6.83484 15.6242 6.68282 15.3553C6.5308 15.0863 6.33389 14.8726 6.10902 14.7323C5.82719 14.5579 5.51373 14.5061 5.21018 14.584C4.90664 14.6618 4.62734 14.8656 4.40931 15.1682L2.88321 17.2732C2.70875 17.5146 2.57924 17.8111 2.50582 18.1372C2.43239 18.4633 2.41725 18.8092 2.4617 19.1452C2.50615 19.4811 2.60885 19.7971 2.76098 20.066C2.91311 20.3349 3.11011 20.5485 3.33505 20.6886C3.61676 20.8628 3.93001 20.9143 4.23335 20.8365C4.53669 20.7587 4.8158 20.5551 5.03375 20.2527ZM10.3177 20.3259C10.4672 20.1326 10.5871 19.8996 10.6701 19.6407C10.7532 19.3819 10.7978 19.1025 10.8012 18.8193C10.8046 18.5361 10.7668 18.2549 10.69 17.9924C10.6132 17.7298 10.499 17.4914 10.3543 17.2913C10.2095 17.0912 10.0371 16.9335 9.84743 16.8277C9.65771 16.7219 9.45455 16.67 9.25005 16.6753C9.04556 16.6806 8.84392 16.7428 8.65718 16.8583C8.47043 16.9739 8.3024 17.1403 8.16311 17.3477L5.11498 21.5632C4.96548 21.7565 4.84562 21.9895 4.76256 22.2484C4.67949 22.5072 4.63492 22.7866 4.63151 23.0698C4.62809 23.353 4.66591 23.6342 4.74269 23.8968C4.81947 24.1593 4.93364 24.3977 5.0784 24.5978C5.22316 24.7979 5.39554 24.9556 5.58526 25.0614C5.77498 25.1672 5.97814 25.2191 6.18264 25.2138C6.38713 25.2085 6.58877 25.1463 6.77551 25.0308C6.96226 24.9152 7.13029 24.7488 7.26959 24.5414L10.3177 20.3259ZM12.6023 24.5442C12.8078 24.259 12.9501 23.8981 13.0122 23.5044C13.0743 23.1108 13.0536 22.7007 12.9527 22.3227C12.8517 21.9447 12.6747 21.6147 12.4426 21.3717C12.2104 21.1288 11.9329 20.983 11.6428 20.9516C11.4237 20.9288 11.2037 20.9723 10.998 21.0792C10.7923 21.186 10.6059 21.3536 10.4517 21.5703L8.41593 24.3755C8.21006 24.6607 8.06755 25.0216 8.00527 25.4155C7.94299 25.8095 7.96356 26.2198 8.06453 26.5981C8.16551 26.9763 8.34266 27.3065 8.575 27.5496C8.80734 27.7927 9.08513 27.9384 9.37545 27.9695C9.83744 28.0202 10.2629 27.7713 10.5665 27.3508L12.6023 24.5442ZM34.4905 14.0602C34.7593 13.7384 34.935 13.2928 34.9852 12.8057C35.0354 12.3186 34.9567 11.8227 34.7636 11.4096L34.7606 11.4026L31.2403 2.23329C31.0541 1.82237 30.7708 1.51365 30.4386 1.35979C30.1064 1.20593 29.7459 1.21647 29.4187 1.38961C27.3961 2.47373 25.1806 3.71956 23.0301 2.70715L21.9152 2.17704C19.9373 1.22791 17.7867 0.115667 15.823 1.76364C15.1173 2.33875 14.0583 3.35678 13.375 3.98532C12.5303 4.76504 11.5735 5.28128 10.5705 5.4983C10.372 5.54342 10.1818 5.64257 10.0111 5.79004C9.84037 5.93751 9.69244 6.13036 9.57584 6.35747C9.45924 6.58457 9.3763 6.84142 9.33179 7.11317C9.28729 7.38492 9.28211 7.6662 9.31656 7.94074C9.93898 11.4729 14.698 9.21749 17.275 7.42188C17.4359 7.31034 17.6158 7.26199 17.7952 7.28207C17.9745 7.30215 18.1465 7.38989 18.2924 7.53577L30.0543 19.3697L34.4905 14.0602Z" fill="#721B27"/>
<path d="M15.3337 28.1961C15.2627 28.5716 15.1236 28.8964 14.9388 29.1537L13.9193 30.5542C13.7323 30.8151 13.4992 31.0037 13.2433 31.1014C12.9873 31.199 12.7174 31.2024 12.4603 31.111C12.2007 31.0174 11.9636 30.8306 11.7729 30.5693C11.5822 30.3081 11.4447 29.9817 11.3743 29.6233C11.3039 29.2648 11.3032 28.887 11.3721 28.528C11.441 28.169 11.5771 27.8416 11.7668 27.5788L12.7862 26.1783C12.9733 25.9175 13.2063 25.7289 13.4623 25.6312C13.7182 25.5335 13.9881 25.5302 14.2453 25.6215C14.4388 25.6915 14.6205 25.8137 14.78 25.981C14.9395 26.1483 15.0736 26.3575 15.1747 26.5966C15.2757 26.8356 15.3418 27.1 15.3691 27.3744C15.3964 27.6489 15.3844 27.9281 15.3337 28.1961ZM4.62775 21.2766L6.15384 19.1716C6.32833 18.9303 6.4579 18.6339 6.5314 18.3079C6.60489 17.9819 6.62012 17.636 6.57578 17.3C6.53143 16.9641 6.42884 16.648 6.27681 16.3791C6.12479 16.1102 5.92788 15.8964 5.70302 15.7562C5.42133 15.5807 5.10769 15.5285 4.80398 15.6063C4.50027 15.6842 4.22095 15.8886 4.0033 16.1921L2.47721 18.297C2.30274 18.5385 2.17323 18.835 2.09981 19.1611C2.02639 19.4872 2.01125 19.833 2.0557 20.169C2.10014 20.505 2.20284 20.821 2.35497 21.0899C2.5071 21.3587 2.7041 21.5724 2.92904 21.7125C3.21075 21.8866 3.52401 21.9382 3.82734 21.8604C4.13068 21.7825 4.4098 21.579 4.62775 21.2766ZM9.9117 21.3497C10.0612 21.1564 10.1811 20.9234 10.2641 20.6646C10.3472 20.4058 10.3918 20.1264 10.3952 19.8432C10.3986 19.56 10.3608 19.2787 10.284 19.0162C10.2072 18.7537 10.093 18.5153 9.94828 18.3152C9.80352 18.1151 9.63114 17.9574 9.44142 17.8516C9.25171 17.7457 9.04854 17.6939 8.84405 17.6992C8.63955 17.7044 8.43792 17.7667 8.25117 17.8822C8.06442 17.9977 7.89639 18.1642 7.7571 18.3716L4.70898 22.5871C4.55947 22.7804 4.43962 23.0134 4.35655 23.2722C4.27349 23.5311 4.22892 23.8104 4.2255 24.0936C4.22209 24.3768 4.2599 24.6581 4.33668 24.9206C4.41346 25.1831 4.52764 25.4216 4.6724 25.6217C4.81716 25.8218 4.98954 25.9794 5.17925 26.0853C5.36897 26.1911 5.57214 26.2429 5.77663 26.2377C5.98113 26.2324 6.18276 26.1701 6.36951 26.0546C6.55625 25.9391 6.72429 25.7727 6.86358 25.5653L9.9117 21.3497ZM12.1963 25.5681C12.4018 25.2828 12.5441 24.922 12.6062 24.5283C12.6683 24.1346 12.6476 23.7245 12.5467 23.3466C12.4457 22.9686 12.2687 22.6386 12.0366 22.3956C11.8044 22.1526 11.5269 22.0068 11.2368 21.9754C11.0177 21.9526 10.7977 21.9962 10.592 22.103C10.3863 22.2099 10.1999 22.3775 10.0457 22.5941L8.00992 25.3994C7.80406 25.6845 7.66154 26.0455 7.59926 26.4394C7.53698 26.8333 7.55755 27.2437 7.65853 27.6219C7.7595 28.0002 7.93666 28.3304 8.169 28.5734C8.40134 28.8165 8.67913 28.9623 8.96944 28.9934C9.43143 29.044 9.85687 28.7951 10.1605 28.3747L12.1963 25.5681ZM29.0056 19.751L29.6423 18.9888L22.623 3.73242L10.1645 6.52357C9.96638 6.56991 9.77677 6.66985 9.60651 6.81767C9.43626 6.9655 9.28869 7.15832 9.17225 7.38512C9.05581 7.61192 8.97276 7.86827 8.92786 8.13952C8.88296 8.41077 8.87708 8.69161 8.91055 8.96601C9.57866 12.7555 15.0058 9.94045 17.3939 8.12093L29.0056 19.751Z" fill="#721B27"/>
</svg>
