<svg width="41" height="43" viewBox="0 0 41 43" fill="none" xmlns="http://www.w3.org/2000/svg">
<path d="M20.4698 13.2488V21.4472L24.36 25.5468M28.2492 35.7946L32.1394 39.8943M12.6904 35.7946L8.80019 39.8943M8.80019 3.00006C7.48245 3.0083 6.20615 3.48638 5.17909 4.35648C4.15203 5.22657 3.4347 6.43743 3.14387 7.79193C2.85305 9.14642 3.00586 10.5648 3.57744 11.8161C4.14901 13.0674 5.10568 14.0779 6.29169 14.6832C7.85118 11.0434 10.6173 8.12831 14.0711 6.48484C13.5941 5.43905 12.8459 4.55686 11.9132 3.94021C10.9805 3.32356 9.90125 2.99762 8.80019 3.00006ZM32.1394 3.00006C31.0396 3.00339 29.963 3.33423 29.0339 3.95446C28.1048 4.57468 27.3609 5.45902 26.8881 6.5055C30.3419 8.14897 33.108 11.0641 34.6675 14.7039C35.8661 14.1042 36.835 13.0919 37.4144 11.834C37.9937 10.5761 38.149 9.14759 37.8544 7.78419C37.5599 6.42079 36.8333 5.20388 35.7944 4.33417C34.7554 3.46446 33.4662 2.99388 32.1394 3.00006Z" stroke="#721B27" stroke-width="5" stroke-linecap="round" stroke-linejoin="round"/>
<path d="M36.0296 21.4475C36.0296 25.7964 34.3902 29.9672 31.4722 33.0424C28.5542 36.1176 24.5965 37.8452 20.4698 37.8452C16.343 37.8452 12.3854 36.1176 9.46733 33.0424C6.5493 29.9672 4.90997 25.7964 4.90997 21.4475C4.90396 19.1144 5.37522 16.8073 6.29165 14.6835C7.85114 11.0437 10.6173 8.12861 14.0711 6.48514C16.0877 5.52305 18.2758 5.02539 20.4894 5.02539C22.703 5.02539 24.8911 5.52305 26.9077 6.48514C30.3615 8.12861 33.1276 11.0437 34.6871 14.6835C35.59 16.8105 36.0479 19.1174 36.0296 21.4475Z" stroke="#721B27" stroke-width="5" stroke-linecap="round" stroke-linejoin="round"/>
</svg>
