<svg width="36" height="38" viewBox="0 0 36 38" fill="none" xmlns="http://www.w3.org/2000/svg">
<path fill-rule="evenodd" clip-rule="evenodd" d="M32.4425 14.0992C32.0804 13.9003 31.6676 13.8263 31.2631 13.8877C30.8586 13.9492 30.4828 14.143 30.1894 14.4415L19.3176 25.4985L14.6094 21.1626C14.236 20.8185 13.751 20.6377 13.2543 20.6574C12.7576 20.6772 12.287 20.8959 11.9394 21.2686L0.938144 33.0536C0.582311 33.4336 0.382445 33.9446 0.381348 34.4772V35.189C0.381348 36.3137 1.2515 37.2265 2.32366 37.2265H33.3411C34.3822 37.2265 35.9542 36.3653 35.9982 35.2732V17.3755C36.0136 16.9902 35.9244 16.6083 35.741 16.274C35.5576 15.9398 35.2876 15.667 34.9623 15.4874L32.4425 14.0992Z" fill="#721B27"/>
<path fill-rule="evenodd" clip-rule="evenodd" d="M32.3649 9.86938C32.625 10.1425 32.9539 10.3325 33.313 10.4172C33.6721 10.5019 34.0468 10.4778 34.3934 10.3477C34.74 10.2176 35.0441 9.98682 35.2705 9.68233C35.4969 9.37784 35.6361 9.01215 35.672 8.62784C35.9051 6.1502 35.9077 4.72121 35.672 2.33323C35.6256 1.8681 35.4281 1.43387 35.1126 1.10342C34.7971 0.772978 34.3829 0.566436 33.9395 0.518467C31.6631 0.26853 30.3034 0.271246 27.939 0.518467C27.5734 0.556965 27.2257 0.703462 26.9363 0.940947C26.6469 1.17843 26.4276 1.49716 26.304 1.86013C26.1803 2.2231 26.1573 2.61542 26.2377 2.99154C26.3181 3.36765 26.4985 3.71213 26.7581 3.98499L28.1876 5.48461L18.691 15.4468L14.5474 11.0973C14.1832 10.7158 13.6895 10.5014 13.1748 10.5014C12.6601 10.5014 12.1664 10.7158 11.8023 11.0973L0.544603 22.8987C0.190964 23.2832 -0.00458235 23.798 8.1551e-05 24.3322C0.00474545 24.8664 0.209246 25.3774 0.569538 25.755C0.92983 26.1326 1.41709 26.3466 1.92636 26.351C2.43563 26.3554 2.92617 26.1498 3.29233 25.7784L13.1696 15.4196L17.3184 19.7691C17.6826 20.1506 18.1763 20.3649 18.691 20.3649C19.2057 20.3649 19.6994 20.1506 20.0636 19.7691L30.9353 8.36704L32.3649 9.86938Z" fill="#721B27"/>
<path fill-rule="evenodd" clip-rule="evenodd" d="M12.7864 37.226V20.7356C13.1 20.6402 13.4314 20.6293 13.7501 20.7039C14.0687 20.7784 14.3643 20.936 14.6096 21.1621L19.3177 25.498L25.9656 18.7334V37.226H12.7864Z" fill="#721B27"/>
</svg>
