<svg width="30" height="33" viewBox="0 0 30 33" fill="none" xmlns="http://www.w3.org/2000/svg">
<path d="M24 25.9791C22.335 25.9791 21 27.3864 21 29.1415C21 29.9802 21.3161 30.7845 21.8787 31.3776C22.4413 31.9707 23.2044 32.3038 24 32.3038C24.7956 32.3038 25.5587 31.9707 26.1213 31.3776C26.6839 30.7845 27 29.9802 27 29.1415C27 28.3028 26.6839 27.4984 26.1213 26.9053C25.5587 26.3123 24.7956 25.9791 24 25.9791ZM0 0.680176V3.84254H3L8.4 15.8437L6.36 19.7176C6.135 20.1603 6 20.6821 6 21.2356C6 22.0743 6.31607 22.8786 6.87868 23.4717C7.44129 24.0647 8.20435 24.3979 9 24.3979H27V21.2356H9.63C9.53054 21.2356 9.43516 21.1939 9.36483 21.1198C9.29451 21.0456 9.255 20.9451 9.255 20.8403C9.255 20.7612 9.27 20.698 9.3 20.6505L10.65 18.0732H21.825C22.95 18.0732 23.94 17.4091 24.45 16.4446L29.82 6.21432C29.925 5.96133 30 5.69253 30 5.42372C30 5.00437 29.842 4.60219 29.5607 4.30566C29.2794 4.00913 28.8978 3.84254 28.5 3.84254H6.315L4.905 0.680176M9 25.9791C7.335 25.9791 6 27.3864 6 29.1415C6 29.9802 6.31607 30.7845 6.87868 31.3776C7.44129 31.9707 8.20435 32.3038 9 32.3038C9.79565 32.3038 10.5587 31.9707 11.1213 31.3776C11.6839 30.7845 12 29.9802 12 29.1415C12 28.3028 11.6839 27.4984 11.1213 26.9053C10.5587 26.3123 9.79565 25.9791 9 25.9791Z" fill="#FFFAF6"/>
</svg>
