<svg width="25" height="33" viewBox="0 0 25 33" fill="none" xmlns="http://www.w3.org/2000/svg">
<path d="M21.875 0.703613H3.125C2.2962 0.703613 1.50134 1.03679 0.915291 1.62985C0.32924 2.22291 0 3.02727 0 3.86598V29.1649C0 30.0036 0.32924 30.808 0.915291 31.401C1.50134 31.9941 2.2962 32.3273 3.125 32.3273H21.875C22.7038 32.3273 23.4987 31.9941 24.0847 31.401C24.6708 30.808 25 30.0036 25 29.1649V3.86598C25 3.02727 24.6708 2.22291 24.0847 1.62985C23.4987 1.03679 22.7038 0.703613 21.875 0.703613ZM14.0625 30.7461H10.9375V29.1649H14.0625V30.7461ZM21.875 27.5837H3.125V5.44716H21.875V27.5837Z" fill="#FFFAF6"/>
<path opacity="0.9" d="M9.17236 27.5838L16.1357 20.1814C18.2362 21.0426 20.7019 20.5642 22.4371 18.7461C24.2635 16.8324 24.6288 13.9618 23.6243 11.6654L19.6974 15.7799L16.9577 12.9093L20.8846 8.69909C18.6928 7.55086 15.9531 8.02929 14.1266 9.94301C12.3915 11.761 11.9349 14.3446 12.7568 16.5454L4.44633 25.2528C4.08104 25.6355 3.80707 27.201 4.17236 27.5838H6.67236C8.17236 27.5838 8.67236 27.5838 9.17236 27.5838Z" fill="#BCAC99"/>
</svg>
