<svg width="36" height="35" viewBox="0 0 36 35" fill="none" xmlns="http://www.w3.org/2000/svg">
<rect x="0.317383" width="35.0731" height="35" rx="17.5" fill="#FFFAF6"/>
<path d="M26.3716 9H10.3382C9.23586 9 8.34401 9.9 8.34401 11L8.33398 23C8.33398 24.1 9.23586 25 10.3382 25H26.3716C27.4739 25 28.3757 24.1 28.3757 23V11C28.3757 9.9 27.4739 9 26.3716 9ZM25.9707 13.25L18.886 17.67C18.5653 17.87 18.1444 17.87 17.8238 17.67L10.739 13.25C10.6385 13.1937 10.5505 13.1177 10.4803 13.0265C10.4102 12.9352 10.3593 12.8308 10.3307 12.7194C10.3022 12.608 10.2966 12.4919 10.3143 12.3783C10.332 12.2647 10.3726 12.1558 10.4336 12.0583C10.4947 11.9608 10.575 11.8767 10.6696 11.811C10.7642 11.7453 10.8711 11.6995 10.984 11.6763C11.0969 11.6531 11.2133 11.653 11.3262 11.6759C11.4391 11.6989 11.5461 11.7445 11.6409 11.81L18.3549 16L25.0688 11.81C25.1636 11.7445 25.2706 11.6989 25.3836 11.6759C25.4965 11.653 25.6129 11.6531 25.7257 11.6763C25.8386 11.6995 25.9455 11.7453 26.0401 11.811C26.1347 11.8767 26.215 11.9608 26.2761 12.0583C26.3372 12.1558 26.3778 12.2647 26.3955 12.3783C26.4131 12.4919 26.4076 12.608 26.379 12.7194C26.3505 12.8308 26.2996 12.9352 26.2294 13.0265C26.1592 13.1177 26.0712 13.1937 25.9707 13.25Z" fill="#721B27"/>
</svg>
