<svg width="30" height="32" viewBox="0 0 30 32" fill="none" xmlns="http://www.w3.org/2000/svg">
<path d="M29.113 10.4835V10.4042C28.054 7.35348 26.1325 4.71954 23.6083 2.85872C21.0842 0.997905 18.0792 0 15 0C11.9208 0 8.91583 0.997905 6.39168 2.85872C3.86754 4.71954 1.946 7.35348 0.886995 10.4042C0.886995 10.4042 0.886995 10.4042 0.886995 10.4835C-0.295665 13.9261 -0.295665 17.6975 0.886995 21.1401V21.2194C1.946 24.2702 3.86754 26.9041 6.39168 28.7649C8.91583 30.6258 11.9208 31.6237 15 31.6237C18.0792 31.6237 21.0842 30.6258 23.6083 28.7649C26.1325 26.9041 28.054 24.2702 29.113 21.2194C29.113 21.2194 29.113 21.2194 29.113 21.1401C30.2957 17.6975 30.2957 13.9261 29.113 10.4835ZM3.33686 18.9834C2.81428 16.905 2.81428 14.7187 3.33686 12.6402H6.1324C5.89154 14.747 5.89154 16.8767 6.1324 18.9834H3.33686ZM4.5693 22.1551H6.67348C7.02437 23.57 7.52869 24.9375 8.17646 26.2306C6.70248 25.1712 5.47034 23.779 4.5693 22.1551ZM6.67348 9.46859H4.5693C5.45737 7.84962 6.67377 6.45788 8.13137 5.39306C7.49915 6.68821 7.00998 8.05568 6.67348 9.46859ZM13.467 28.0226C11.6209 26.5932 10.3244 24.5104 9.81471 22.1551H13.467V28.0226ZM13.467 18.9834H9.16843C8.88874 16.8793 8.88874 14.7443 9.16843 12.6402H13.467V18.9834ZM13.467 9.46859H9.81471C10.3244 7.1133 11.6209 5.03042 13.467 3.6011V9.46859ZM25.3706 9.46859H23.2664C22.9155 8.05366 22.4112 6.68612 21.7634 5.39306C23.2374 6.4525 24.4695 7.84463 25.3706 9.46859ZM16.4729 3.6011C18.3189 5.03042 19.6154 7.1133 20.1252 9.46859H16.4729V3.6011ZM16.4729 28.0226V22.1551H20.1252C19.6154 24.5104 18.3189 26.5932 16.4729 28.0226ZM20.7715 18.9834H16.4729V12.6402H20.7715C21.0511 14.7443 21.0511 16.8793 20.7715 18.9834ZM21.8085 26.2306C22.4563 24.9375 22.9606 23.57 23.3115 22.1551H25.4157C24.5146 23.779 23.2825 25.1712 21.8085 26.2306ZM26.603 18.9834H23.8075C23.9303 17.9313 23.9906 16.872 23.9878 15.8118C23.9906 14.7517 23.9303 13.6924 23.8075 12.6402H26.603C27.1256 14.7187 27.1256 16.905 26.603 18.9834Z" fill="#FFFAF6"/>
</svg>
