<svg width="36" height="35" viewBox="0 0 36 35" fill="none" xmlns="http://www.w3.org/2000/svg">
<rect x="0.317383" width="35.0731" height="35" rx="17.5" fill="#FFFAF6"/>
<path d="M12.54 10.0009C12.5397 10.5313 12.3179 11.0399 11.9233 11.4147C11.5287 11.7896 10.9937 12 10.436 11.9998C9.8782 11.9995 9.3434 11.7886 8.9492 11.4133C8.55501 11.0381 8.33371 10.5293 8.33398 9.99889C8.33426 9.46849 8.5561 8.95991 8.95069 8.58505C9.34528 8.21018 9.8803 7.99974 10.4381 8C10.9958 8.00027 11.5306 8.21122 11.9248 8.58646C12.319 8.9617 12.5403 9.47049 12.54 10.0009ZM12.6031 13.4807H8.39708V26H12.6031V13.4807ZM19.2486 13.4807H15.0636V26H19.2066V19.4304C19.2066 15.7706 24.2223 15.4306 24.2223 19.4304V26H28.3757V18.0704C28.3757 11.9008 20.9521 12.1308 19.2066 15.1606L19.2486 13.4807Z" fill="#721B27"/>
</svg>
