<svg width="30" height="33" viewBox="0 0 30 33" fill="none" xmlns="http://www.w3.org/2000/svg">
<path d="M1.51528 0.868164L0 2.46436L2.66934 7.32711L4.40043 7.05966L14.967 18.1917L14.0657 19.1035C13.604 19.5897 13.604 20.3264 14.0657 20.8127L14.5342 21.3075C14.9958 21.7938 15.7021 21.7938 16.0483 21.3075L17.4194 22.7505C17.304 23.4799 17.4194 24.3467 17.9964 24.9546L24.2352 31.4889C25.5047 32.8261 27.582 32.8261 28.8515 31.4889C30.3517 30.0301 30.3379 27.8491 29.0684 26.5119L22.8654 19.9386C22.2883 19.3308 21.4655 19.0877 20.7731 19.3308L19.2578 17.8878C19.604 17.4015 19.604 16.6575 19.2578 16.2916L18.825 15.8369C18.7201 15.7217 18.5941 15.63 18.4547 15.5673C18.3153 15.5047 18.1653 15.4724 18.0137 15.4724C17.8621 15.4724 17.7121 15.5047 17.5727 15.5673C17.4333 15.63 17.3073 15.7217 17.2024 15.8369L16.4453 16.6344L5.87877 5.50358L6.13036 3.68005L1.51528 0.868164ZM24.0194 0.90585C21.7425 0.706478 18.7234 2.2966 17.3109 3.67883C15.5729 5.50966 15.8568 7.90334 17.2382 10.2144L14.787 12.7977L16.518 14.8486C17.4413 13.9976 18.8031 13.9976 19.7263 14.8486L20.196 15.3421L20.3045 15.4564L21.3143 14.3927C23.4008 15.685 25.5728 15.871 27.2289 14.1264C28.8445 12.5461 30.5964 8.64856 29.7886 6.33875L26.5434 9.87154C26.0817 10.3578 25.3824 10.3578 24.9207 9.87154L21.5659 6.33875C21.4565 6.22824 21.3694 6.09556 21.31 5.94869C21.2505 5.80182 21.2198 5.6438 21.2198 5.48413C21.2198 5.32446 21.2505 5.16643 21.31 5.01956C21.3694 4.87269 21.4565 4.74001 21.5659 4.6295L24.9219 1.09671C24.6334 0.989733 24.3449 0.935027 24.0194 0.90585ZM11.3248 16.0642L7.14016 20.4711C6.69043 20.3663 6.23089 20.3153 5.77029 20.3192C2.53893 20.3192 0 22.9937 0 26.3976C0 29.8015 2.53893 32.476 5.77029 32.476C9.00166 32.476 11.5406 29.8015 11.5406 26.3976C11.5406 25.7739 11.4471 25.1746 11.2878 24.6117L13.7402 22.0284L13.3802 21.5348C12.4569 20.5623 12.4638 19.0889 13.2717 18.1151L11.3248 16.0642ZM20.2687 21.6114C20.413 21.6114 20.5492 21.6406 20.6646 21.7634L27.4816 28.9432C27.7124 29.1864 27.7124 29.573 27.4816 29.8161C27.2508 30.0592 26.8815 30.0592 26.6507 29.8161L19.836 22.6363C19.6051 22.3931 19.6051 22.0065 19.836 21.7634C19.9514 21.6418 20.1245 21.6114 20.2687 21.6114ZM6.56429 23.2429L8.76392 25.5612L7.96993 28.7135L4.97746 29.5499L2.77667 27.2315L3.57066 24.0793L6.56429 23.2429Z" fill="#FFFAF6"/>
</svg>
