<svg width="36" height="35" viewBox="0 0 36 35" fill="none" xmlns="http://www.w3.org/2000/svg">
<rect x="0.317383" width="35.0731" height="35" rx="17.5" fill="#FFFAF6"/>
<path d="M12.9637 15.79C14.4067 18.62 16.7316 20.93 19.5675 22.38L21.7721 20.18C22.0427 19.91 22.4435 19.82 22.7942 19.94C23.9166 20.31 25.1291 20.51 26.3717 20.51C26.9228 20.51 27.3738 20.96 27.3738 21.51V25C27.3738 25.55 26.9228 26 26.3717 26C16.9621 26 9.33618 18.39 9.33618 9C9.33618 8.45 9.78712 8 10.3383 8H13.8456C14.3967 8 14.8477 8.45 14.8477 9C14.8477 10.25 15.0481 11.45 15.4189 12.57C15.5291 12.92 15.4489 13.31 15.1683 13.59L12.9637 15.79Z" fill="#721B27"/>
</svg>
