<svg width="32" height="35" viewBox="0 0 32 35" fill="none" xmlns="http://www.w3.org/2000/svg">
<path d="M23.5001 15.8076H4.40918L7.13645 33.0569H20.7728L23.5001 15.8076Z" stroke="#721B27" stroke-width="2" stroke-miterlimit="10" stroke-linecap="round" stroke-linejoin="round"/>
<path d="M23.0459 18.6824H26.2273L28.9545 23.7134L26.2273 28.7444H21.4545M7.81818 15.8075L3.04545 10.7765L1 5.0267L6.45455 7.18286L14.6364 15.8075M4.40909 12.2139L7.81818 8.6203M31 5.0267L27.5909 1.43311H22.8182L20.0909 4.30798V7.90158L22.8182 10.0577H25.5455L27.5909 5.0267H31Z" stroke="#721B27" stroke-width="2" stroke-miterlimit="10" stroke-linecap="round" stroke-linejoin="round"/>
<path d="M20.091 15.8078L22.8183 10.058L20.091 7.90186L14.6365 15.8078" stroke="#721B27" stroke-width="2" stroke-miterlimit="10" stroke-linecap="round" stroke-linejoin="round"/>
<path d="M17.3636 11.8545V1.43311H10.5454V11.4952M17.3636 4.30798H14.6363M17.3636 7.18286H14.6363" stroke="#721B27" stroke-width="2" stroke-miterlimit="10" stroke-linecap="round" stroke-linejoin="round"/>
</svg>
