<svg width="35" height="33" viewBox="0 0 35 33" fill="none" xmlns="http://www.w3.org/2000/svg">
<path d="M20.7812 1.52588C20.9523 1.42443 21.1337 1.40893 21.3008 1.46631C21.4747 1.52604 21.6617 1.67616 21.7871 1.93311C21.9114 2.1878 21.9488 2.50015 21.8828 2.79736L14.6504 30.3735C14.5635 30.6605 14.3958 30.8614 14.2197 30.9653C14.0495 31.0657 13.8695 31.0808 13.7031 31.0239C13.5299 30.9646 13.3434 30.8153 13.2178 30.5601C13.0925 30.3055 13.0532 29.9923 13.1191 29.6938L20.3506 2.1167C20.437 1.83059 20.6056 1.63027 20.7812 1.52588ZM27.1895 8.32666C27.35 8.32342 27.5327 8.38792 27.6943 8.5542L33.7168 15.4438C33.8859 15.6375 33.9999 15.9256 34 16.2495C34 16.5732 33.8866 16.8614 33.7178 17.0552L27.6826 23.9595C27.5172 24.1482 27.3242 24.2231 27.1562 24.2231C26.9882 24.2231 26.7944 24.1485 26.6289 23.9595H26.6299C26.4609 23.7657 26.3467 23.4777 26.3467 23.1538C26.3467 22.8704 26.4344 22.6146 26.5693 22.4253L26.6299 22.3481L31.3848 16.9077L31.96 16.2495L31.3848 15.5913L26.6436 10.1665C26.4868 9.96836 26.3859 9.68703 26.3906 9.37646C26.3955 9.06013 26.5086 8.78045 26.6738 8.59131C26.8357 8.40607 27.0245 8.32999 27.1895 8.32666ZM7.84375 8.27686C8.01137 8.27686 8.20489 8.35061 8.37012 8.53857V8.53955C8.53928 8.73332 8.65332 9.02216 8.65332 9.34619C8.65323 9.66976 8.53895 9.95719 8.37012 10.1509L3.61523 15.5913L3.04004 16.2495L3.61523 16.9077L8.35059 22.3257C8.51075 22.5242 8.61423 22.809 8.60938 23.1235C8.60447 23.4399 8.49145 23.7196 8.32617 23.9087C8.16425 24.0939 7.97547 24.17 7.81055 24.1733L7.68359 24.1616C7.57542 24.14 7.46238 24.0877 7.35645 23.9946L7.29395 23.9331L1.28223 17.0552C1.11339 16.8614 1 16.5732 1 16.2495C1.00009 15.9256 1.1141 15.6375 1.2832 15.4438L1.28223 15.4429L7.31738 8.54053C7.4828 8.35168 7.67579 8.27691 7.84375 8.27686Z" fill="#721B27" stroke="#721B27" stroke-width="2"/>
</svg>
