<svg width="30" height="32" viewBox="0 0 30 32" fill="none" xmlns="http://www.w3.org/2000/svg">
<path d="M27.6667 31.6237L17.1667 20.5554C16.3333 21.2581 15.375 21.8145 14.2917 22.2244C13.2083 22.6343 12.0556 22.8393 10.8333 22.8393C7.80556 22.8393 5.24333 21.7337 3.14667 19.5223C1.05 17.311 0.00111199 14.6101 8.81834e-07 11.4197C-0.00111023 8.22918 1.04778 5.52828 3.14667 3.31697C5.24556 1.10566 7.80778 0 10.8333 0C13.8589 0 16.4217 1.10566 18.5217 3.31697C20.6217 5.52828 21.67 8.22918 21.6667 11.4197C21.6667 12.708 21.4722 13.9232 21.0833 15.0652C20.6944 16.2071 20.1667 17.2173 19.5 18.0958L30 29.164L27.6667 31.6237ZM10.8333 19.3256C12.9167 19.3256 14.6878 18.5572 16.1467 17.0206C17.6056 15.4839 18.3344 13.6169 18.3333 11.4197C18.3322 9.2224 17.6033 7.35601 16.1467 5.82051C14.69 4.28501 12.9189 3.51608 10.8333 3.51374C8.74778 3.5114 6.97722 4.28032 5.52167 5.82051C4.06611 7.3607 3.33667 9.22708 3.33333 11.4197C3.33 13.6122 4.05945 15.4792 5.52167 17.0206C6.98389 18.5619 8.75445 19.3303 10.8333 19.3256Z" fill="#721B27"/>
</svg>
