<svg width="30" height="33" viewBox="0 0 30 33" fill="none" xmlns="http://www.w3.org/2000/svg">
<path d="M5.38739 13.0311L8.30557 14.331C8.65475 13.5957 9.0164 12.8867 9.39053 12.2039C9.76465 11.5211 10.1762 10.8384 10.6251 10.1556L8.53004 9.7223L5.38739 13.0311ZM10.7 16.3005L14.965 20.7517C16.0125 20.3315 17.1349 19.6881 18.3321 18.8215C19.5293 17.9549 20.6517 16.9702 21.6992 15.8672C23.4451 14.029 24.8109 11.9875 25.7966 9.74278C26.7823 7.49804 27.2123 5.42977 27.0866 3.53797C25.2908 3.40667 23.3204 3.85993 21.1755 4.89774C19.0305 5.93555 17.085 7.37304 15.3391 9.21022C14.2916 10.3132 13.3562 11.4949 12.5332 12.7554C11.7101 14.0159 11.099 15.1976 10.7 16.3005ZM17.3594 13.7401C16.7857 13.1362 16.4989 12.3946 16.4989 11.5154C16.4989 10.6362 16.7857 9.89404 17.3594 9.289C17.933 8.68396 18.6439 8.38197 19.4919 8.38302C20.3399 8.38407 21.0507 8.68606 21.6244 9.289C22.1981 9.89194 22.4849 10.6341 22.4849 11.5154C22.4849 12.3967 22.1981 13.1383 21.6244 13.7401C21.0507 14.342 20.3399 14.644 19.4919 14.6461C18.6439 14.6482 17.933 14.3462 17.3594 13.7401ZM18.0702 26.3845L21.2129 23.0757L20.8013 20.8698C20.1528 21.3425 19.5044 21.769 18.8559 22.1492C18.2074 22.5295 17.534 22.904 16.8356 23.2727L18.0702 26.3845ZM29.7803 0.66246C30.2542 3.83997 29.9614 6.93239 28.9019 9.93973C27.8424 12.9471 26.0151 15.8158 23.4202 18.5458L24.1685 22.4455C24.2682 22.9707 24.2433 23.4827 24.0936 23.9817C23.944 24.4806 23.6946 24.9139 23.3454 25.2816L17.0601 31.8992L13.9174 24.1393L7.5199 17.4035L0.14965 14.0947L6.39753 7.47703C6.74671 7.10939 7.16474 6.84678 7.6516 6.68922C8.13846 6.53166 8.63081 6.5054 9.12864 6.61044L12.8325 7.39825C15.4264 4.66717 18.145 2.73703 20.9884 1.60783C23.8317 0.478638 26.7624 0.163513 29.7803 0.66246ZM2.80593 22.4061C3.67889 21.487 4.7454 21.0211 6.00545 21.0085C7.2655 20.9959 8.3315 21.4486 9.20347 22.3667C10.0754 23.2847 10.5059 24.4076 10.4949 25.7354C10.484 27.0631 10.041 28.1855 9.16605 29.1025C8.54251 29.759 7.50145 30.3236 6.04286 30.7963C4.58427 31.269 2.56999 31.6891 0 32.0568C0.349183 29.3519 0.748249 27.2312 1.1972 25.6944C1.64615 24.1576 2.18239 23.0615 2.80593 22.4061ZM4.93845 24.6119C4.68903 24.8745 4.43961 25.3541 4.1902 26.0505C3.94078 26.7469 3.76619 27.4491 3.66642 28.1571C4.33985 28.0521 5.00728 27.8751 5.66874 27.6261C6.33019 27.3772 6.78512 27.1209 7.03354 26.8572C7.33284 26.5421 7.49496 26.1613 7.5199 25.7149C7.54485 25.2685 7.40767 24.8877 7.10837 24.5726C6.80907 24.2574 6.44741 24.1062 6.02341 24.1188C5.5994 24.1314 5.23774 24.2958 4.93845 24.6119Z" fill="#721B27"/>
</svg>
