<svg width="36" height="35" viewBox="0 0 36 35" fill="none" xmlns="http://www.w3.org/2000/svg">
<rect x="0.438477" width="35.0731" height="35" rx="17.5" fill="#FFFAF6"/>
<path d="M22.9252 10.82C22.2404 10.0395 21.8629 9.0374 21.863 8H18.7665V20.4C18.7431 21.0712 18.4594 21.7071 17.9752 22.1735C17.491 22.6399 16.8441 22.9004 16.1711 22.9C14.7482 22.9 13.5657 21.74 13.5657 20.3C13.5657 18.58 15.2292 17.29 16.9427 17.82V14.66C13.4855 14.2 10.4592 16.88 10.4592 20.3C10.4592 23.63 13.225 26 16.1611 26C19.3077 26 21.863 23.45 21.863 20.3V14.01C23.1186 14.9099 24.6261 15.3926 26.172 15.39V12.3C26.172 12.3 24.288 12.39 22.9252 10.82Z" fill="#721B27"/>
</svg>
