<svg width="133" height="65" viewBox="0 0 133 65" fill="none" xmlns="http://www.w3.org/2000/svg">
<path d="M111.103 0.342947C111.158 0.442734 111.262 0.504538 111.375 0.504538H114.327C114.556 0.504538 114.767 0.62977 114.878 0.831854L124.221 17.7677C125.806 20.6399 130.126 19.5009 130.126 16.211V1.25643C130.126 0.841172 130.458 0.504538 130.868 0.504538C131.278 0.504538 131.611 0.841172 131.611 1.25643V32.0378C131.611 32.1005 131.561 32.1513 131.499 32.1513C131.437 32.1513 131.387 32.2021 131.387 32.2648V32.4042C131.387 32.6649 131.044 32.7552 130.919 32.5276L130.801 32.3136C130.746 32.2134 130.641 32.1513 130.528 32.1513H127.623C127.395 32.1513 127.184 32.0264 127.072 31.8246L117.683 14.8502C116.096 11.9817 111.78 13.1223 111.78 16.4102V31.4222C111.78 31.8249 111.457 32.1513 111.06 32.1513C110.662 32.1513 110.34 31.8249 110.34 31.4222V0.595252C110.34 0.545152 110.38 0.504538 110.429 0.504538C110.479 0.504538 110.519 0.463925 110.519 0.413825V0.252477C110.519 -0.00717531 110.86 -0.0972208 110.985 0.129339L111.103 0.342947ZM45.3072 0.368624C49.0843 0.368668 52.5991 1.34837 55.4783 3.08815C55.7924 3.27783 55.8814 3.69777 55.6722 4.00152L54.3293 5.95045C54.0883 6.3006 53.5821 6.31682 53.3196 5.98287C52.2071 4.56937 51.1403 3.55533 49.8869 2.88677C48.6395 2.22144 47.1583 1.87302 45.1779 1.87241C41.5765 1.91577 39.1777 4.44062 39.1777 6.71855C39.1777 8.51031 40.3486 9.5189 41.8345 10.2978L42.1356 10.4506L42.1498 10.4574L42.1627 10.4649L52.9511 16.4481C52.9512 16.4481 52.9511 16.4482 52.951 16.4482C52.951 16.4482 52.9509 16.4484 52.951 16.4484C55.9597 18.0938 57.3975 20.6126 57.3975 23.5806C57.3974 27.4333 53.4702 32.2871 45.3072 32.2872C43.1947 32.2872 41.1102 31.6406 39.3809 30.8352C37.6525 30.0301 36.2304 29.0441 35.4372 28.3139C35.1857 28.0822 35.1608 27.6901 35.3812 27.428L36.9032 25.615C37.2035 25.2571 37.7699 25.339 37.9592 25.7677C38.2958 26.5295 39.1714 27.8007 40.4688 28.8775C41.7599 29.9491 43.4143 30.7841 45.3072 30.7841C49.9564 30.7839 52.8682 27.6905 52.8682 24.4416C52.8682 22.6719 51.5993 20.8107 49.3463 19.5624L49.3451 19.5618L39.0989 13.8528C37.8719 13.1838 36.8955 12.3716 36.229 11.3403C35.5589 10.3033 35.2309 9.08958 35.2309 7.67057V7.65997L35.2315 7.65C35.3316 4.50872 37.7247 1.47078 41.8339 0.696563L41.8401 0.69594L41.8456 0.694693C42.9385 0.510248 44.0956 0.368624 45.3072 0.368624ZM18.0031 1.25643C18.0031 1.67169 17.6706 2.00832 17.2605 2.00832H7.45761C5.71654 2.00832 4.30512 3.43748 4.30512 5.20043V11.5454C4.30512 13.3083 5.71654 14.7375 7.45761 14.7375H17.2605C17.6706 14.7375 18.0031 15.0741 18.0031 15.4894C18.0031 15.9046 17.6706 16.2413 17.2605 16.2413H7.45761C5.71654 16.2413 4.30512 17.6704 4.30512 19.4334V27.4554C4.30512 29.2184 5.71654 30.6475 7.45761 30.6475H17.2605C17.6706 30.6475 18.0031 30.9842 18.0031 31.3994C18.0031 31.8147 17.6706 32.1513 17.2605 32.1513H3.15249C1.41142 32.1513 0 30.7221 0 28.9592V3.69665C0 1.93369 1.41142 0.504538 3.15249 0.504538H17.2605C17.6706 0.504538 18.0031 0.841171 18.0031 1.25643ZM70.6416 0.935972L78.1491 23.1074L78.2384 23.2882L78.2525 23.3294L80.9383 31.3071C81.0778 31.7211 80.7739 32.1513 80.3419 32.1513H77.1184C76.8485 32.1513 76.6086 31.9773 76.5218 31.7186L74.7087 26.3353C74.2734 25.0426 73.0739 24.1735 71.725 24.1735H63.1728C61.8238 24.1735 60.6243 25.0427 60.189 26.3356L58.3765 31.7186C58.2896 31.9773 58.0497 32.1513 57.7798 32.1513H57.511C57.0776 32.1513 56.7734 31.7187 56.9154 31.304L59.6362 23.3531L59.675 23.1991L59.6812 23.1729L59.6898 23.1473L66.7183 2.34187L66.7207 2.33501L67.2127 0.929737C67.302 0.67485 67.5402 0.504538 67.8073 0.504538H70.0453C70.3147 0.504538 70.5543 0.677904 70.6416 0.935972ZM86.1836 0.895447L92.0446 14.9801C93.1289 17.586 96.7768 17.5829 97.8569 14.9753L103.689 0.89607C103.787 0.6589 104.016 0.504538 104.27 0.504538H105.486C106.844 0.504538 107.944 1.61898 107.944 2.99371V29.9717C107.944 31.1755 106.981 32.1513 105.792 32.1513C104.603 32.1513 103.639 31.1755 103.639 29.9717V20.6828C103.639 17.1992 98.914 16.2344 97.5807 19.4457L95.6294 24.1455L94.1073 27.8164C94.0093 28.0536 93.7801 28.2079 93.5262 28.2079H93.3028C93.049 28.2079 92.8199 28.0539 92.7214 27.817L89.2912 19.5768C87.9556 16.3683 83.2337 17.3348 83.2337 20.8167V31.3997C83.2337 31.8148 82.9014 32.1513 82.4915 32.1513C82.0815 32.1513 81.7492 31.8148 81.7492 31.3997V3.10407C81.7492 1.66839 82.8986 0.504538 84.3165 0.504538H85.6022C85.856 0.504538 86.0851 0.658571 86.1836 0.895447ZM44.7142 31.3975C44.7824 31.4034 44.851 31.4081 44.9199 31.4119H44.9205C44.8514 31.4081 44.7826 31.4034 44.7142 31.3975ZM56.557 25.0626C56.5669 25.0269 56.5756 24.991 56.5847 24.9553C56.5756 24.991 56.5669 25.0269 56.557 25.0626ZM56.6063 24.873C56.6135 24.8431 56.6198 24.8131 56.6266 24.7833C56.6198 24.8131 56.6135 24.8431 56.6063 24.873ZM56.6457 24.6972C56.6511 24.6717 56.656 24.6461 56.6611 24.6205C56.656 24.6461 56.6511 24.6717 56.6457 24.6972ZM56.6845 24.499C56.6878 24.4798 56.6912 24.4607 56.6943 24.4416C56.6912 24.4607 56.6878 24.4798 56.6845 24.499ZM56.7103 24.335C56.714 24.3098 56.7175 24.2847 56.7208 24.2596C56.7175 24.2847 56.714 24.3098 56.7103 24.335ZM56.7368 24.1286C56.7385 24.1124 56.7401 24.0962 56.7417 24.08C56.7401 24.0962 56.7385 24.1124 56.7368 24.1286ZM53.4304 23.6629C53.4529 23.7919 53.4701 23.9213 53.4815 24.051C53.4815 24.0512 53.4816 24.0513 53.4818 24.0513C53.4819 24.0513 53.4821 24.0512 53.4821 24.051C53.4707 23.9212 53.4531 23.7918 53.4304 23.6629ZM62.829 18.4857C62.1257 20.558 63.6463 22.7153 65.8104 22.7153H69.0876C71.2517 22.7153 72.7723 20.5578 72.0688 18.4855L70.4301 13.658C69.4549 10.7853 65.4425 10.7855 64.4675 13.6582L62.829 18.4857ZM33.002 16.3055C33.002 16.7207 32.6696 17.0574 32.2594 17.0574H21.158C20.7479 17.0574 20.4154 16.7207 20.4154 16.3055C20.4154 15.8902 20.7479 15.5536 21.158 15.5536H32.2594C32.6696 15.5536 33.002 15.8902 33.002 16.3055ZM52.2999 3.88992C52.4471 4.03149 52.593 4.17843 52.7377 4.33133L52.7383 4.33195C52.5211 4.10239 52.3015 3.88573 52.0783 3.68168C52.1525 3.7497 52.2264 3.81915 52.2999 3.88992ZM49.6591 2.06693C49.7479 2.10657 49.8358 2.14726 49.9226 2.18973C49.9226 2.18974 49.9226 2.18975 49.9227 2.18975C49.9228 2.18975 49.9228 2.18955 49.9227 2.18949C49.7537 2.10682 49.5808 2.03034 49.4042 1.95844C49.49 1.9935 49.5751 2.02941 49.6591 2.06693ZM48.831 1.74834C48.9263 1.77947 49.0205 1.81164 49.1136 1.8456C49.2027 1.87815 49.2906 1.91262 49.3777 1.94785C49.1128 1.84107 48.8391 1.74572 48.5545 1.66292C48.6478 1.69007 48.7399 1.7186 48.831 1.74834ZM40.9122 1.58187C40.8994 1.58586 40.8867 1.59033 40.874 1.59434C40.9064 1.58408 40.9392 1.57436 40.9719 1.56442C40.952 1.57045 40.9319 1.57572 40.9122 1.58187ZM41.2871 1.47464C41.2527 1.48375 41.2185 1.49324 41.1843 1.5027C41.2185 1.49324 41.2527 1.48375 41.2871 1.47464ZM46.6328 1.30194C46.5333 1.29213 46.4325 1.28343 46.3305 1.27576C46.4325 1.28341 46.5333 1.29215 46.6328 1.30194ZM46.184 1.26578C46.1309 1.26236 46.0776 1.25929 46.0239 1.25643C46.0776 1.25928 46.1309 1.26237 46.184 1.26578ZM45.8706 1.24895C45.7661 1.24447 45.6605 1.24077 45.5535 1.23835C45.6605 1.24078 45.7661 1.24448 45.8706 1.24895ZM47.6731 1.14167C47.6732 1.14169 47.6734 1.14155 47.6734 1.14137C47.6734 1.14121 47.6733 1.14108 47.6731 1.14106C47.5627 1.1284 47.452 1.11707 47.3409 1.10618C47.3065 1.1028 47.272 1.10003 47.2375 1.09682C47.3832 1.11038 47.5284 1.12509 47.6731 1.14167ZM47.0805 1.08311C46.9812 1.07465 46.8816 1.06708 46.7818 1.06004C46.8816 1.06709 46.9812 1.07464 47.0805 1.08311ZM46.578 1.04632C46.4904 1.04101 46.4025 1.0362 46.3145 1.03198C46.4025 1.03621 46.4904 1.041 46.578 1.04632ZM46.115 1.02263C45.9606 1.01672 45.8056 1.01269 45.6501 1.01016C45.8056 1.01268 45.9606 1.0167 46.115 1.02263ZM39.8211 29.1581C39.8203 29.1574 39.8194 29.1569 39.8186 29.1562C39.7866 29.1279 39.7554 29.0987 39.7238 29.0702C39.7562 29.0993 39.7882 29.1291 39.8211 29.1581Z" fill="#721B27"/>
<path d="M125.657 48.6802C127.319 48.6802 128.873 49.065 130.188 49.7528C130.442 49.8857 130.511 50.2152 130.348 50.4527C130.159 50.7264 129.764 50.738 129.542 50.4918C128.518 49.3606 127.421 48.7949 125.589 48.7949C123.638 48.8179 122.23 50.1966 122.23 51.5755C122.23 52.7477 123.07 53.3452 123.91 53.7589L129.38 56.7932C130.81 57.5747 131.468 58.7467 131.468 60.1256C131.468 61.8494 129.675 64.2168 125.657 64.2168C123.897 64.2167 122.136 63.2738 121.217 62.5751C121.016 62.4221 120.997 62.1319 121.16 61.9377C121.383 61.6727 121.817 61.7267 122.019 62.0081C122.678 62.9287 123.982 64.1013 125.657 64.1014C128.154 64.1014 129.811 62.4237 129.811 60.5621C129.811 59.5049 129.062 58.471 127.859 57.8045L122.661 54.9085C121.481 54.265 120.868 53.3916 120.868 52.0587C120.913 50.6338 122.003 49.2089 123.955 48.841C124.499 48.7491 125.067 48.6802 125.657 48.6802ZM87.746 60.8407C87.746 62.6037 89.1574 64.0328 90.8985 64.0328H94.6353C94.6666 64.0328 94.6919 64.0585 94.6919 64.0902C94.6919 64.1219 94.6666 64.1476 94.6353 64.1476H89.3549C87.6138 64.1476 86.2024 62.7184 86.2024 60.9555V49.5303C86.2024 49.0986 86.5479 48.7488 86.9742 48.7488C87.4005 48.7488 87.746 49.0986 87.746 49.5303V60.8407ZM105.905 60.0103L105.951 60.1026L106.964 63.1118C107.135 63.6198 106.762 64.1476 106.232 64.1476C105.901 64.1476 105.607 63.9344 105.5 63.6172L104.998 62.1251C104.591 60.9156 103.469 60.1026 102.207 60.1026H99.3451C98.0832 60.1026 96.9612 60.9156 96.5542 62.1251L95.8884 64.1034C95.8795 64.1298 95.855 64.1476 95.8274 64.1476C95.7831 64.1476 95.752 64.1033 95.7665 64.0609L97.1216 60.1026L97.1444 60.0103L100.708 49.4614L100.769 49.2873C100.882 48.9645 101.184 48.7488 101.522 48.7488C101.863 48.7488 102.167 48.9683 102.277 49.2952L105.905 60.0103ZM114.588 48.7488C117.38 48.7488 118.651 50.3805 118.651 52.4028C118.651 54.3564 116.949 55.9653 115.224 55.9653C117.425 56.0113 119.877 57.2066 119.877 60.0564C119.877 62.3087 117.948 64.1475 115.315 64.1476H111.499C109.758 64.1476 108.346 62.7184 108.346 60.9555V51.9409C108.346 50.1779 109.758 48.7488 111.499 48.7488H114.588ZM109.867 60.8407C109.867 62.6037 111.278 64.0328 113.019 64.0328H114.407C116.563 64.0328 118.334 62.2628 118.334 60.0564C118.334 57.5054 116.449 56.0806 114.407 56.0806H113.019C111.278 56.0806 109.867 57.5098 109.867 59.2727V60.8407ZM98.4012 56.6413C97.8409 58.2919 99.0521 60.0103 100.776 60.0103C102.5 60.0103 103.711 58.2919 103.151 56.6413C102.374 54.3531 99.1779 54.3531 98.4012 56.6413ZM109.867 52.7732C109.867 54.5361 111.278 55.9653 113.019 55.9653H113.59C115.065 55.9653 117.108 55.3217 117.108 52.4028C117.108 50.4494 115.927 48.8635 113.59 48.8635H113.019C111.278 48.8635 109.867 50.2926 109.867 52.0556V52.7732Z" fill="#721B27"/>
<path d="M131.467 60.1259C131.467 58.7469 130.809 57.5749 129.379 56.7935L123.909 53.7591C123.07 53.3454 122.23 52.7479 122.23 51.5758C122.23 50.1968 123.637 48.8181 125.589 48.7951C127.42 48.7952 128.518 49.361 129.541 50.4922C129.764 50.7382 130.159 50.7266 130.347 50.4529C130.501 50.2303 130.45 49.9268 130.233 49.7802L130.188 49.7534C128.872 49.0655 127.319 48.6804 125.657 48.6804C125.067 48.6804 124.499 48.7493 123.954 48.8413C122.003 49.2091 120.913 50.6341 120.868 52.0589C120.868 53.3918 121.48 54.2653 122.661 54.9088L127.859 57.8047C129.061 58.4712 129.81 59.5051 129.81 60.5623C129.81 62.4239 128.154 64.1017 125.657 64.1017C123.982 64.1016 122.678 62.9286 122.018 62.0081C121.817 61.7268 121.382 61.6727 121.16 61.9376C120.997 62.1318 121.016 62.4225 121.217 62.5754C122.136 63.2741 123.896 64.2169 125.657 64.217C129.674 64.217 131.467 61.8496 131.467 60.1259ZM107.715 51.9411C107.715 49.8256 109.409 48.1106 111.498 48.1106H114.588C116.105 48.1106 117.295 48.5564 118.107 49.3612C118.868 50.115 119.234 51.1211 119.277 52.1886L119.282 52.4031C119.282 53.7855 118.568 55.0172 117.552 55.7841C117.976 55.953 118.381 56.1711 118.749 56.445C119.725 57.1709 120.416 58.2694 120.498 59.7543L120.507 60.0567C120.507 62.6385 118.373 64.6564 115.586 64.78L115.315 64.7862H111.498C109.409 64.7862 107.715 63.0712 107.715 60.9557V51.9411ZM101.522 48.749C101.184 48.749 100.882 48.9648 100.769 49.2877L100.708 49.4616L97.144 60.0105L97.1212 60.1028L95.766 64.0611C95.7515 64.1035 95.7827 64.1478 95.827 64.1478C95.8546 64.1478 95.879 64.13 95.8879 64.1035L96.5535 62.1253C96.9605 60.9159 98.0828 60.1029 99.3446 60.1028H102.206C103.468 60.1029 104.59 60.9159 104.998 62.1253L105.5 63.6172C105.6 63.9146 105.865 64.1208 106.17 64.1453L106.232 64.1478C106.729 64.1477 107.087 63.6841 106.989 63.2076L106.964 63.1122L105.951 60.1028L105.905 60.0105L102.277 49.2951C102.173 48.989 101.9 48.7769 101.585 48.7515L101.522 48.749ZM87.7456 60.841V49.5302C87.7455 49.1258 87.442 48.7928 87.053 48.7527L86.9741 48.749C86.548 48.749 86.2022 49.0987 86.202 49.5302V60.9557C86.202 62.7186 87.6134 64.1478 89.3545 64.1478H94.6349L94.6571 64.1434C94.6774 64.1347 94.6916 64.1142 94.6916 64.0904C94.6916 64.0588 94.6662 64.0331 94.6349 64.0331V63.3947C94.8798 63.3947 95.0939 63.5249 95.2156 63.7201L96.5178 59.9145L96.5326 59.8559L96.5387 59.8297L100.111 49.2552L100.114 49.2484L100.175 49.0744C100.377 48.4967 100.916 48.1106 101.522 48.1106C102.132 48.1107 102.675 48.5035 102.873 49.0882L106.488 59.7636L106.534 59.8559L106.547 59.8971L107.561 62.9059C107.871 63.828 107.194 64.7861 106.232 64.7862C105.631 64.7862 105.097 64.3992 104.903 63.8236L104.401 62.331C104.081 61.3804 103.198 60.7413 102.206 60.7412H99.3446C98.3527 60.7413 97.4708 61.3804 97.1508 62.331L96.4846 64.3093C96.3886 64.5943 96.1244 64.7862 95.827 64.7862C95.5656 64.7862 95.3474 64.6431 95.2285 64.439C95.1095 64.6463 94.8888 64.7862 94.6349 64.7862H89.3545C87.2652 64.7862 85.5715 63.0712 85.5715 60.9557V49.5302C85.5717 48.7461 86.1998 48.1106 86.9741 48.1106C87.7484 48.1107 88.376 48.7462 88.3761 49.5302V60.841C88.3761 62.2513 89.5053 63.3947 90.8981 63.3947H94.6349V64.0331H90.8981C89.1571 64.0331 87.7456 62.6039 87.7456 60.841ZM109.867 59.273C109.867 57.51 111.278 56.0809 113.019 56.0809H114.406C116.449 56.0809 118.333 57.5056 118.333 60.0567C118.333 62.2631 116.563 64.0331 114.406 64.0331H113.019C111.332 64.0331 109.955 62.6917 109.871 61.0049L109.867 60.841V59.273ZM98.4007 56.6414C99.1774 54.3533 102.374 54.3533 103.15 56.6414C103.711 58.292 102.499 60.0105 100.776 60.0105C99.0518 60.0105 97.8404 58.292 98.4007 56.6414ZM102.554 56.849C101.972 55.1355 99.579 55.1355 98.9973 56.849C98.5777 58.0851 99.4846 59.3721 100.776 59.3721C102.066 59.3721 102.973 58.0851 102.554 56.849ZM109.867 52.0558C109.867 50.2929 111.278 48.8637 113.019 48.8637H113.589C115.927 48.8637 117.107 50.4497 117.108 52.4031C117.108 55.322 115.065 55.9655 113.589 55.9655H113.019C111.332 55.9655 109.955 54.6241 109.871 52.9374L109.867 52.7734V52.0558ZM110.497 60.841C110.497 62.2513 111.626 63.3947 113.019 63.3947H114.406C116.217 63.3947 117.703 61.9081 117.703 60.0567C117.703 58.9518 117.3 58.1314 116.71 57.5828C116.111 57.0264 115.286 56.7193 114.406 56.7193H113.019C111.626 56.7193 110.497 57.8626 110.497 59.273V60.841ZM110.497 52.7734C110.497 54.1838 111.626 55.3271 113.019 55.3271H113.589C114.253 55.3271 114.98 55.1794 115.524 54.7672C116.037 54.3798 116.477 53.6927 116.477 52.4031C116.477 51.5534 116.221 50.8349 115.763 50.3351C115.312 49.8433 114.61 49.5021 113.589 49.5021H113.019C111.626 49.5021 110.497 50.6455 110.497 52.0558V52.7734ZM108.346 60.9557C108.346 62.7186 109.757 64.1478 111.498 64.1478H115.315C117.947 64.1477 119.876 62.309 119.876 60.0567C119.876 57.2068 117.425 56.0115 115.223 55.9655C116.948 55.9655 118.651 54.3567 118.651 52.4031C118.651 50.3807 117.38 48.749 114.588 48.749H111.498C109.757 48.749 108.346 50.1782 108.346 51.9411V60.9557ZM122.86 51.5758C122.86 52.2509 123.255 52.6712 123.896 53.0328L124.185 53.1849L124.199 53.1918L124.212 53.1992L129.682 56.2336C131.301 57.1194 132.098 58.4985 132.098 60.1259C132.098 62.3026 129.914 64.8554 125.657 64.8554C123.705 64.8554 121.813 63.8271 120.838 63.0861C120.318 62.6905 120.305 61.9703 120.679 61.5243C121.215 60.8863 122.133 61.0817 122.528 61.6334C123.134 62.4793 124.273 63.4632 125.657 63.4632C127.879 63.4632 129.18 62.0014 129.18 60.5623C129.18 59.8204 128.639 58.9649 127.556 58.3646L127.554 58.364L122.357 55.468C121.706 55.1123 121.167 54.6694 120.794 54.092C120.416 53.5075 120.237 52.8299 120.237 52.0589V52.049L120.238 52.0384C120.294 50.2825 121.628 48.6302 123.839 48.2134L123.845 48.2128L123.851 48.2116C124.414 48.1165 125.019 48.042 125.657 48.042C127.414 48.042 129.068 48.449 130.477 49.186C131.094 49.5085 131.231 50.2866 130.865 50.8183C130.426 51.4544 129.549 51.4457 129.076 50.923C128.607 50.4038 128.145 50.0414 127.613 49.8033C127.081 49.5651 126.442 49.434 125.593 49.4336C123.891 49.455 122.86 50.6387 122.86 51.5758Z" fill="#721B27"/>
<path d="M131.832 39.8877V43.7182H53.6501V39.8877H131.832Z" fill="url(#paint0_linear_61_7)"/>
<defs>
<linearGradient id="paint0_linear_61_7" x1="53.6501" y1="44.0374" x2="131.832" y2="44.0374" gradientUnits="userSpaceOnUse">
<stop stop-color="#721B27"/>
<stop offset="1" stop-color="#FFFAF6"/>
</linearGradient>
</defs>
</svg>
