<svg width="209" height="106" viewBox="0 0 209 106" fill="none" xmlns="http://www.w3.org/2000/svg">
<rect x="0.100098" width="208.434" height="106" fill="#FFFAF6"/>
<path d="M149.514 23.3431C149.57 23.4429 149.674 23.5047 149.787 23.5047H152.746C152.975 23.5047 153.186 23.6299 153.297 23.832L162.66 40.7678C164.248 43.64 168.577 42.501 168.577 39.2111V24.2566C168.577 23.8413 168.91 23.5047 169.321 23.5047C169.732 23.5047 170.065 23.8413 170.065 24.2566V55.038C170.065 55.1006 170.015 55.1514 169.953 55.1514C169.891 55.1514 169.84 55.2022 169.84 55.2649V55.4044C169.84 55.6651 169.497 55.7553 169.372 55.5277L169.253 55.3137C169.198 55.2135 169.093 55.1514 168.98 55.1514H166.069C165.84 55.1514 165.629 55.0265 165.517 54.8247L156.108 37.8504C154.518 34.9818 150.193 36.1224 150.193 39.4103V54.4223C150.193 54.825 149.869 55.1514 149.471 55.1514C149.072 55.1514 148.749 54.825 148.749 54.4223V23.5954C148.749 23.5453 148.79 23.5047 148.839 23.5047C148.889 23.5047 148.929 23.464 148.929 23.4139V23.2526C148.929 22.9929 149.271 22.9029 149.396 23.1295L149.514 23.3431ZM83.5812 23.3687C87.3662 23.3688 90.8884 24.3485 93.7735 26.0883C94.0883 26.278 94.1775 26.6979 93.9679 27.0016L92.6222 28.9506C92.3806 29.3007 91.8734 29.3169 91.6103 28.983C90.4956 27.5695 89.4265 26.5554 88.1705 25.8869C86.9205 25.2216 85.4361 24.8731 83.4516 24.8725C79.8427 24.9159 77.4389 27.4407 77.4389 29.7187C77.4389 31.5104 78.6123 32.519 80.1013 33.2979L80.403 33.4507L80.4172 33.4576L80.4302 33.465L91.2411 39.4482C91.2411 39.4483 91.2411 39.4484 91.241 39.4484C91.241 39.4484 91.2409 39.4485 91.241 39.4485C94.2559 41.0939 95.6967 43.6127 95.6967 46.5807C95.6967 50.4334 91.7613 55.2872 83.5812 55.2873C81.4643 55.2873 79.3755 54.6408 77.6425 53.8353C75.9105 53.0302 74.4855 52.0442 73.6906 51.314C73.4386 51.0824 73.4136 50.6902 73.6345 50.4281L75.1597 48.6151C75.4606 48.2572 76.0282 48.3391 76.2179 48.7678C76.5552 49.5296 77.4326 50.8008 78.7328 51.8776C80.0266 52.9492 81.6844 53.7842 83.5812 53.7842C88.2401 53.7841 91.158 50.6907 91.158 47.4417C91.158 45.672 89.8865 43.8108 87.6288 42.5625L87.6275 42.5619L77.3599 36.8529C76.1304 36.1839 75.1519 35.3717 74.4841 34.3404C73.8126 33.3034 73.4839 32.0897 73.4839 30.6707V30.6601L73.4845 30.6501C73.5848 27.5088 75.9829 24.4709 80.1007 23.6967L80.1068 23.6961L80.1124 23.6948C81.2076 23.5104 82.3671 23.3687 83.5812 23.3687ZM56.2201 24.2566C56.2201 24.6718 55.8869 25.0084 55.476 25.0084H45.6526C43.9079 25.0084 42.4935 26.4376 42.4935 28.2006V34.5455C42.4935 36.3084 43.9079 37.7376 45.6526 37.7376H55.476C55.8869 37.7376 56.2201 38.0742 56.2201 38.4895C56.2201 38.9047 55.8869 39.2414 55.476 39.2414H45.6526C43.9079 39.2414 42.4935 40.6705 42.4935 42.4335V50.4555C42.4935 52.2185 43.9079 53.6476 45.6526 53.6476H55.476C55.8869 53.6476 56.2201 53.9843 56.2201 54.3995C56.2201 54.8148 55.8869 55.1514 55.476 55.1514H41.3385C39.5938 55.1514 38.1794 53.7223 38.1794 51.9593V26.6968C38.1794 24.9338 39.5938 23.5047 41.3385 23.5047H55.476C55.8869 23.5047 56.2201 23.8413 56.2201 24.2566ZM108.969 23.9361L116.492 46.1075L116.581 46.2883L116.595 46.3295L119.287 54.3073C119.427 54.7213 119.122 55.1514 118.689 55.1514H115.459C115.188 55.1514 114.948 54.9774 114.861 54.7187L113.044 49.3354C112.608 48.0427 111.406 47.1736 110.054 47.1736H101.484C100.132 47.1736 98.9303 48.0428 98.4941 49.3357L96.6778 54.7187C96.5907 54.9774 96.3503 55.1514 96.0799 55.1514H95.8105C95.3762 55.1514 95.0714 54.7188 95.2136 54.3041L97.9402 46.3532L97.979 46.1992L97.9852 46.173L97.9939 46.1474L105.037 25.342L105.039 25.3351L105.532 23.9299C105.622 23.675 105.861 23.5047 106.128 23.5047H108.371C108.641 23.5047 108.881 23.678 108.969 23.9361ZM124.543 23.8956L130.416 37.9803C131.503 40.5861 135.158 40.5831 136.241 37.9754L142.084 23.8962C142.183 23.659 142.412 23.5047 142.667 23.5047H143.886C145.246 23.5047 146.349 24.6191 146.349 25.9938V52.9718C146.349 54.1756 145.383 55.1514 144.192 55.1514C143.001 55.1514 142.035 54.1756 142.035 52.9718V43.6829C142.035 40.1993 137.3 39.2345 135.964 42.4458L134.008 47.1456L132.483 50.8165C132.385 51.0537 132.155 51.208 131.901 51.208H131.677C131.423 51.208 131.193 51.054 131.094 50.8171L127.657 42.577C126.319 39.3685 121.587 40.3349 121.587 43.8168V54.3998C121.587 54.8149 121.254 55.1514 120.843 55.1514C120.432 55.1514 120.099 54.8149 120.099 54.3998V26.1042C120.099 24.6685 121.251 23.5047 122.672 23.5047H123.96C124.215 23.5047 124.444 23.6587 124.543 23.8956ZM82.987 54.3977C83.0554 54.4036 83.1241 54.4082 83.1931 54.412H83.1937C83.1245 54.4082 83.0556 54.4036 82.987 54.3977ZM94.8545 48.0627C94.8644 48.027 94.8731 47.9911 94.8823 47.9555C94.8731 47.9911 94.8644 48.027 94.8545 48.0627ZM94.9039 47.8732C94.9112 47.8433 94.9175 47.8132 94.9242 47.7834C94.9175 47.8132 94.9112 47.8433 94.9039 47.8732ZM94.9434 47.6974C94.9488 47.6718 94.9537 47.6462 94.9588 47.6207C94.9537 47.6462 94.9488 47.6718 94.9434 47.6974ZM94.9822 47.4991C94.9856 47.4799 94.989 47.4608 94.9921 47.4417C94.989 47.4608 94.9856 47.4799 94.9822 47.4991ZM95.0082 47.3351C95.0118 47.3099 95.0153 47.2848 95.0187 47.2597C95.0153 47.2848 95.0118 47.3099 95.0082 47.3351ZM95.0347 47.1288C95.0364 47.1125 95.038 47.0963 95.0396 47.0801C95.038 47.0963 95.0364 47.1125 95.0347 47.1288ZM91.7214 46.663C91.7439 46.792 91.7611 46.9214 91.7726 47.0512C91.7726 47.0513 91.7727 47.0514 91.7729 47.0514C91.773 47.0514 91.7732 47.0513 91.7732 47.0511C91.7617 46.9213 91.7441 46.792 91.7214 46.663ZM101.14 41.4858C100.435 43.5581 101.959 45.7154 104.127 45.7154H107.411C109.58 45.7154 111.104 43.558 110.399 41.4856L108.757 36.6582C107.779 33.7855 103.759 33.7856 102.781 36.6584L101.14 41.4858ZM71.2503 39.3056C71.2503 39.7209 70.9172 40.0575 70.5062 40.0575H59.3816C58.9707 40.0575 58.6375 39.7209 58.6375 39.3056C58.6375 38.8903 58.9707 38.5537 59.3816 38.5537H70.5062C70.9172 38.5537 71.2503 38.8903 71.2503 39.3056ZM90.5885 26.89C90.736 27.0316 90.8823 27.1786 91.0272 27.3314L91.0279 27.3321C90.8102 27.1025 90.5902 26.8859 90.3664 26.6818C90.4409 26.7498 90.5148 26.8193 90.5885 26.89ZM87.9422 25.067C88.0312 25.1067 88.1193 25.1474 88.2063 25.1899C88.2063 25.1899 88.2063 25.1899 88.2063 25.1899C88.2065 25.1899 88.2065 25.1897 88.2064 25.1896C88.0371 25.1069 87.8638 25.0305 87.6868 24.9586C87.7728 24.9936 87.858 25.0295 87.9422 25.067ZM87.1123 24.7485C87.2079 24.7796 87.3023 24.8118 87.3955 24.8457C87.4849 24.8783 87.5729 24.9127 87.6602 24.948C87.3948 24.8412 87.1205 24.7458 86.8353 24.663C86.9288 24.6902 87.0211 24.7187 87.1123 24.7485ZM79.177 24.582C79.1642 24.586 79.1515 24.5904 79.1388 24.5945C79.1713 24.5842 79.2041 24.5745 79.2369 24.5645C79.2169 24.5706 79.1968 24.5758 79.177 24.582ZM79.5528 24.4748C79.5183 24.4839 79.484 24.4934 79.4497 24.5028C79.484 24.4934 79.5183 24.4839 79.5528 24.4748ZM84.9096 24.3021C84.8099 24.2922 84.7089 24.2836 84.6067 24.2759C84.7089 24.2835 84.8099 24.2923 84.9096 24.3021ZM84.4598 24.2659C84.4067 24.2625 84.3532 24.2594 84.2994 24.2566C84.3532 24.2594 84.4067 24.2625 84.4598 24.2659ZM84.1458 24.2491C84.0411 24.2446 83.9352 24.2409 83.828 24.2385C83.9352 24.2409 84.0411 24.2446 84.1458 24.2491ZM85.952 24.1418C85.9522 24.1418 85.9524 24.1417 85.9524 24.1415C85.9524 24.1413 85.9523 24.1412 85.9521 24.1412C85.8415 24.1285 85.7305 24.1172 85.6192 24.1063C85.5847 24.1029 85.5501 24.1002 85.5155 24.0969C85.6616 24.1105 85.8071 24.1252 85.952 24.1418ZM85.3582 24.0832C85.2587 24.0748 85.1589 24.0672 85.0589 24.0602C85.1589 24.0672 85.2587 24.0748 85.3582 24.0832ZM84.8547 24.0464C84.7669 24.0411 84.6788 24.0363 84.5906 24.0321C84.6788 24.0363 84.7669 24.0411 84.8547 24.0464ZM84.3907 24.0228C84.236 24.0168 84.0807 24.0128 83.9249 24.0103C84.0807 24.0128 84.236 24.0168 84.3907 24.0228ZM78.0837 52.1582C78.0829 52.1575 78.082 52.157 78.0812 52.1563C78.0491 52.128 78.0178 52.0988 77.9862 52.0703C78.0186 52.0995 78.0507 52.1292 78.0837 52.1582Z" fill="#721B27"/>
<path d="M164.099 71.6802C165.765 71.6802 167.321 72.065 168.639 72.7528C168.894 72.8857 168.964 73.2152 168.799 73.4527C168.61 73.7264 168.215 73.738 167.992 73.4918C166.966 72.3606 165.866 71.7949 164.031 71.7949C162.075 71.8179 160.665 73.1966 160.665 74.5755C160.665 75.7477 161.507 76.3452 162.348 76.7589L167.83 79.7932C169.262 80.5747 169.922 81.7467 169.922 83.1256C169.922 84.8494 168.125 87.2168 164.099 87.2168C162.335 87.2167 160.571 86.2738 159.65 85.5751C159.448 85.4221 159.43 85.1319 159.593 84.9377C159.816 84.6727 160.251 84.7267 160.453 85.0081C161.114 85.9287 162.42 87.1013 164.099 87.1014C166.601 87.1014 168.261 85.4237 168.261 83.5621C168.261 82.5049 167.511 81.471 166.306 80.8045L161.097 77.9085C159.914 77.265 159.3 76.3916 159.3 75.0587C159.346 73.6338 160.437 72.2089 162.393 71.841C162.939 71.7491 163.508 71.6802 164.099 71.6802ZM126.109 83.8407C126.109 85.6037 127.523 87.0328 129.268 87.0328H133.013C133.044 87.0328 133.069 87.0585 133.069 87.0902C133.069 87.1219 133.044 87.1476 133.013 87.1476H127.721C125.976 87.1476 124.562 85.7184 124.562 83.9555V72.5303C124.562 72.0986 124.908 71.7488 125.335 71.7488C125.763 71.7488 126.109 72.0986 126.109 72.5303V83.8407ZM144.306 83.0103L144.352 83.1026L145.367 86.1118C145.539 86.6198 145.165 87.1476 144.634 87.1476C144.302 87.1476 144.007 86.9344 143.9 86.6172L143.397 85.1251C142.989 83.9156 141.864 83.1026 140.6 83.1026H137.732C136.468 83.1026 135.343 83.9156 134.935 85.1251L134.268 87.1034C134.259 87.1298 134.235 87.1476 134.207 87.1476C134.163 87.1476 134.132 87.1033 134.146 87.0609L135.504 83.1026L135.527 83.0103L139.098 72.4614L139.159 72.2873C139.272 71.9645 139.574 71.7488 139.913 71.7488C140.255 71.7488 140.56 71.9683 140.67 72.2952L144.306 83.0103ZM153.007 71.7488C155.805 71.7488 157.079 73.3805 157.079 75.4028C157.079 77.3564 155.373 78.9653 153.644 78.9653C155.85 79.0113 158.307 80.2066 158.307 83.0564C158.307 85.3087 156.374 87.1475 153.735 87.1476H149.911C148.166 87.1476 146.752 85.7184 146.752 83.9555V74.9409C146.752 73.1779 148.166 71.7488 149.911 71.7488H153.007ZM148.276 83.8407C148.276 85.6037 149.69 87.0328 151.435 87.0328H152.825C154.986 87.0328 156.76 85.2628 156.76 83.0564C156.76 80.5054 154.872 79.0806 152.825 79.0806H151.435C149.69 79.0806 148.276 80.5098 148.276 82.2727V83.8407ZM136.786 79.6413C136.225 81.2919 137.439 83.0103 139.166 83.0103C140.893 83.0103 142.107 81.2919 141.546 79.6413C140.767 77.3531 137.565 77.3531 136.786 79.6413ZM148.276 75.7732C148.276 77.5361 149.69 78.9653 151.435 78.9653H152.006C153.485 78.9653 155.532 78.3217 155.532 75.4028C155.532 73.4494 154.349 71.8635 152.006 71.8635H151.435C149.69 71.8635 148.276 73.2926 148.276 75.0556V75.7732Z" fill="#721B27"/>
<path d="M169.921 83.126C169.921 81.747 169.262 80.575 167.829 79.7936L162.348 76.7592C161.506 76.3455 160.664 75.748 160.664 74.5759C160.665 73.197 162.075 71.8182 164.031 71.7953C165.866 71.7953 166.966 72.3611 167.991 73.4923C168.214 73.7383 168.61 73.7267 168.799 73.453C168.953 73.2304 168.902 72.9269 168.685 72.7803L168.639 72.7535C167.321 72.0657 165.764 71.6805 164.099 71.6805C163.507 71.6805 162.938 71.7495 162.393 71.8414C160.437 72.2092 159.345 73.6342 159.3 75.0591C159.3 76.3919 159.914 77.2654 161.096 77.9089L166.305 80.8049C167.51 81.4713 168.261 82.5053 168.261 83.5624C168.261 85.424 166.601 87.1018 164.099 87.1018C162.42 87.1017 161.114 85.9288 160.453 85.0082C160.251 84.7269 159.815 84.6728 159.592 84.9378C159.429 85.132 159.448 85.4226 159.649 85.5756C160.57 86.2742 162.335 87.2171 164.099 87.2171C168.124 87.2171 169.921 84.8497 169.921 83.126ZM146.12 74.9412C146.12 72.8257 147.817 71.1107 149.911 71.1107H153.007C154.527 71.1107 155.72 71.5565 156.534 72.3614C157.296 73.1151 157.663 74.1212 157.706 75.1887L157.71 75.4032C157.71 76.7856 156.995 78.0173 155.977 78.7842C156.401 78.9531 156.808 79.1712 157.176 79.4451C158.154 80.171 158.846 81.2695 158.929 82.7544L158.938 83.0568C158.938 85.6386 156.799 87.6565 154.007 87.7801L153.735 87.7863H149.911C147.817 87.7863 146.12 86.0714 146.12 83.9558V74.9412ZM139.913 71.7491C139.574 71.7491 139.272 71.965 139.159 72.2878L139.098 72.4617L135.526 83.0107L135.503 83.1029L134.145 87.0613C134.131 87.1036 134.162 87.1479 134.207 87.1479C134.234 87.1479 134.259 87.1301 134.268 87.1037L134.935 85.1254C135.342 83.916 136.467 83.103 137.731 83.1029H140.599C141.864 83.103 142.988 83.916 143.396 85.1254L143.9 86.6174C144 86.9147 144.266 87.1209 144.572 87.1454L144.633 87.1479C145.131 87.1478 145.49 86.6842 145.392 86.2077L145.367 86.1124L144.351 83.1029L144.306 83.0107L140.67 72.2953C140.566 71.9891 140.292 71.777 139.977 71.7516L139.913 71.7491ZM126.108 83.8411V72.5303C126.108 72.1259 125.804 71.793 125.414 71.7529L125.335 71.7491C124.908 71.7491 124.562 72.0988 124.562 72.5303V83.9558C124.562 85.7188 125.976 87.1479 127.721 87.1479H133.012L133.034 87.1436C133.055 87.1348 133.069 87.1143 133.069 87.0906C133.069 87.0589 133.043 87.0332 133.012 87.0332V86.3948C133.257 86.3948 133.472 86.525 133.594 86.7202L134.899 82.9146L134.914 82.856L134.92 82.8298L138.5 72.2554L138.502 72.2485L138.563 72.0746C138.766 71.4969 139.307 71.1107 139.913 71.1107C140.525 71.1108 141.069 71.5036 141.268 72.0883L144.89 82.7638L144.936 82.856L144.949 82.8972L145.965 85.906C146.276 86.8282 145.598 87.7863 144.633 87.7863C144.031 87.7863 143.496 87.3994 143.302 86.8237L142.798 85.3312C142.477 84.3805 141.593 83.7414 140.599 83.7413H137.731C136.738 83.7414 135.854 84.3805 135.533 85.3312L134.866 87.3094C134.769 87.5945 134.505 87.7863 134.207 87.7863C133.945 87.7863 133.726 87.6432 133.607 87.4391C133.488 87.6464 133.266 87.7863 133.012 87.7863H127.721C125.627 87.7863 123.93 86.0714 123.93 83.9558V72.5303C123.93 71.7462 124.559 71.1107 125.335 71.1107C126.111 71.1109 126.74 71.7464 126.74 72.5303V83.8411C126.74 85.2515 127.872 86.3948 129.267 86.3948H133.012V87.0332H129.267C127.523 87.0332 126.108 85.6041 126.108 83.8411ZM148.276 82.2731C148.276 80.5101 149.69 79.081 151.435 79.081H152.825C154.872 79.081 156.76 80.5057 156.76 83.0568C156.76 85.2632 154.985 87.0332 152.825 87.0332H151.435C149.744 87.0332 148.364 85.6918 148.28 84.0051L148.276 83.8411V82.2731ZM136.786 79.6415C137.564 77.3534 140.767 77.3534 141.545 79.6415C142.107 81.2921 140.893 83.0107 139.165 83.0107C137.438 83.0107 136.224 81.2921 136.786 79.6415ZM140.947 79.8491C140.364 78.1356 137.966 78.1356 137.384 79.8491C136.963 81.0853 137.872 82.3722 139.165 82.3722C140.459 82.3722 141.368 81.0853 140.947 79.8491ZM148.276 75.0559C148.276 73.293 149.69 71.8638 151.435 71.8638H152.006C154.349 71.8638 155.531 73.4498 155.531 75.4032C155.531 78.3221 153.484 78.9657 152.006 78.9657H151.435C149.744 78.9657 148.364 77.6243 148.28 75.9375L148.276 75.7735V75.0559ZM148.907 83.8411C148.907 85.2515 150.039 86.3948 151.435 86.3948H152.825C154.639 86.3948 156.128 84.9082 156.128 83.0568C156.128 81.9519 155.724 81.1315 155.133 80.5829C154.533 80.0266 153.706 79.7194 152.825 79.7194H151.435C150.039 79.7194 148.907 80.8627 148.907 82.2731V83.8411ZM148.907 75.7735C148.907 77.1839 150.039 78.3272 151.435 78.3272H152.006C152.671 78.3272 153.399 78.1795 153.945 77.7674C154.458 77.3799 154.9 76.6928 154.9 75.4032C154.9 74.5535 154.643 73.835 154.184 73.3352C153.732 72.8434 153.028 72.5023 152.006 72.5023H151.435C150.039 72.5023 148.907 73.6456 148.907 75.0559V75.7735ZM146.752 83.9558C146.752 85.7188 148.166 87.1479 149.911 87.1479H153.735C156.373 87.1478 158.306 85.3091 158.306 83.0568C158.306 80.207 155.85 79.0116 153.643 78.9657C155.372 78.9657 157.078 77.3568 157.078 75.4032C157.078 73.3808 155.804 71.7491 153.007 71.7491H149.911C148.166 71.7491 146.752 73.1783 146.752 74.9412V83.9558ZM161.296 74.5759C161.296 75.251 161.692 75.6713 162.334 76.0329L162.624 76.185L162.638 76.1919L162.651 76.1994L168.133 79.2337C169.755 80.1195 170.553 81.4987 170.553 83.126C170.553 85.3028 168.365 87.8555 164.099 87.8555C162.143 87.8555 160.247 86.8272 159.27 86.0862C158.749 85.6906 158.736 84.9704 159.111 84.5244C159.647 83.8864 160.567 84.0818 160.964 84.6335C161.571 85.4794 162.712 86.4633 164.099 86.4634C166.325 86.4634 167.629 85.0015 167.629 83.5624C167.629 82.8206 167.087 81.965 166.001 81.3647L166 81.3641L160.791 78.4681C160.139 78.1124 159.599 77.6695 159.226 77.0922C158.847 76.5076 158.668 75.8301 158.668 75.0591V75.0491L158.668 75.0385C158.724 73.2826 160.061 71.6303 162.277 71.2136L162.283 71.2129L162.289 71.2117C162.853 71.1166 163.46 71.0421 164.099 71.0421C165.86 71.0421 167.517 71.4491 168.929 72.1862C169.547 72.5086 169.684 73.2867 169.317 73.8184C168.878 74.4545 167.999 74.4459 167.525 73.9231C167.055 73.4039 166.592 73.0416 166.059 72.8034C165.526 72.5652 164.885 72.4341 164.035 72.4337C162.329 72.4551 161.296 73.6388 161.296 74.5759Z" fill="#721B27"/>
<path d="M170.287 62.8876V66.7181H91.9417V62.8876H170.287Z" fill="url(#paint0_linear_70_721)"/>
<defs>
<linearGradient id="paint0_linear_70_721" x1="91.9417" y1="67.0373" x2="170.287" y2="67.0373" gradientUnits="userSpaceOnUse">
<stop stop-color="#721B27"/>
<stop offset="1" stop-color="#FFFAF6"/>
</linearGradient>
</defs>
</svg>
